<svg width="29" height="28" viewBox="0 0 29 28" fill="none" xmlns="http://www.w3.org/2000/svg">
<path fill-rule="evenodd" clip-rule="evenodd" d="M22.0328 21.7393C20.0872 23.6334 17.4298 24.8 14.5 24.8C11.4192 24.8 8.63967 23.51 6.67211 21.4407L6.67994 21.3974C6.82473 20.861 7.14388 20.6 7.61716 20.4307C8.0152 20.2883 8.46486 20.2282 8.98155 20.1592C9.16184 20.1351 9.3503 20.11 9.54757 20.0798C10.2553 19.9717 11.0627 19.7967 11.6837 19.266C12.1846 18.8381 12.5118 18.2285 12.6358 17.3879C13.1421 17.6914 13.7457 17.8571 14.4669 17.8571C15.0811 17.8571 15.5899 17.7169 16.0146 17.4667C16.1422 18.2718 16.4523 18.8713 16.9163 19.3093C17.5179 19.8772 18.305 20.0996 19.015 20.237C19.251 20.2827 19.4982 20.3222 19.7329 20.3597L19.7329 20.3597L19.7331 20.3597C19.8489 20.3782 19.9617 20.3962 20.0686 20.4142C20.4057 20.4711 20.7078 20.5316 20.9746 20.617C21.4832 20.7799 21.8048 21.0118 21.9679 21.4298L22.0328 21.7393ZM22.8404 20.8617C22.5023 20.1811 21.9084 19.8361 21.2883 19.6375C20.9488 19.5287 20.5874 19.4586 20.2396 19.4C20.1132 19.3786 19.9908 19.3591 19.8705 19.34L19.8705 19.34L19.8702 19.3399C19.6468 19.3043 19.4309 19.2699 19.2105 19.2272C18.5374 19.0969 17.9997 18.9175 17.6223 18.5613C17.2653 18.2242 16.9775 17.6549 16.9775 16.5714C16.9775 16.5609 16.9772 16.5504 16.9766 16.54C17.7647 15.3859 18.072 13.6215 18.324 11.8571C18.7526 8.85714 17.3072 6.28571 14.4669 6.28571C11.6266 6.28571 9.75261 8.42857 10.1812 11.8571C10.4208 13.774 10.8443 15.423 11.6675 16.5044C11.6647 16.5264 11.6632 16.5487 11.6632 16.5714C11.6632 17.6518 11.3683 18.1826 11.0156 18.484C10.6335 18.8105 10.0871 18.9569 9.39222 19.063C9.2466 19.0853 9.09164 19.1058 8.93133 19.1271L8.93118 19.1271L8.93105 19.1271C8.38696 19.1993 7.78135 19.2795 7.27073 19.4622C6.72185 19.6585 6.22861 19.9873 5.91569 20.5545C4.52574 18.7369 3.7 16.4649 3.7 14C3.7 8.03532 8.53532 3.2 14.5 3.2C20.4647 3.2 25.3 8.03532 25.3 14C25.3 16.6058 24.3771 18.996 22.8404 20.8617ZM23.1094 22.3593C25.2079 20.1984 26.5 17.2501 26.5 14C26.5 7.37258 21.1274 2 14.5 2C7.87258 2 2.5 7.37258 2.5 14C2.5 20.6274 7.87258 26 14.5 26C17.75 26 20.6983 24.708 22.8591 22.6096C22.9713 22.5577 23.059 22.4678 23.1094 22.3593ZM17.1669 12.6267C16.98 13.769 16.7522 14.7684 16.3777 15.5266C16.1506 15.9863 15.8949 16.3017 15.6114 16.5034C15.3399 16.6965 14.9834 16.8286 14.4669 16.8286C13.4382 16.8286 12.789 16.4013 12.2944 15.6017C11.7524 14.7257 11.4118 13.4091 11.2018 11.7296C11.1125 11.0148 11.1398 10.3929 11.2526 9.86207C11.5232 9.02773 12.4375 8.68698 14.8345 9.71429C15.7523 10.1732 16.3654 10.1953 16.755 10.2094C16.9682 10.2171 17.1144 10.2223 17.2069 10.2955C17.4089 10.4552 17.3551 10.9384 17.1837 12.4762L17.1669 12.6267Z" fill="white"/>
</svg>
