<svg width="16" height="16" viewBox="0 0 16 16" fill="none" xmlns="http://www.w3.org/2000/svg">
<path d="M14.6415 12.2207C14.6415 12.4607 14.5881 12.7073 14.4748 12.9473C14.3615 13.1873 14.2148 13.414 14.0215 13.6273C13.6948 13.9873 13.3348 14.2473 12.9281 14.414C12.5281 14.5807 12.0948 14.6673 11.6281 14.6673C10.9481 14.6673 10.2215 14.5073 9.45479 14.1807C8.68812 13.854 7.92146 13.414 7.16146 12.8607C6.39479 12.3007 5.66812 11.6807 4.97479 10.994C4.28812 10.3007 3.66812 9.57398 3.11479 8.81398C2.56812 8.05398 2.12812 7.29398 1.80812 6.54065C1.48813 5.78065 1.32812 5.05398 1.32812 4.36065C1.32812 3.90732 1.40812 3.47398 1.56812 3.07398C1.72812 2.66732 1.98146 2.29398 2.33479 1.96065C2.76146 1.54065 3.22812 1.33398 3.72146 1.33398C3.90812 1.33398 4.09479 1.37398 4.26146 1.45398C4.43479 1.53398 4.58812 1.65398 4.70812 1.82732L6.25479 4.00732C6.37479 4.17398 6.46146 4.32732 6.52146 4.47398C6.58146 4.61398 6.61479 4.75398 6.61479 4.88065C6.61479 5.04065 6.56812 5.20065 6.47479 5.35398C6.38812 5.50732 6.26146 5.66732 6.10146 5.82732L5.59479 6.35398C5.52146 6.42732 5.48812 6.51398 5.48812 6.62065C5.48812 6.67398 5.49479 6.72065 5.50813 6.77398C5.52813 6.82732 5.54813 6.86732 5.56146 6.90732C5.68146 7.12732 5.88812 7.41398 6.18146 7.76065C6.48146 8.10732 6.80146 8.46065 7.14812 8.81398C7.50812 9.16732 7.85479 9.49398 8.20812 9.79398C8.55479 10.0873 8.84146 10.2873 9.06812 10.4073C9.10146 10.4207 9.14146 10.4407 9.18812 10.4607C9.24146 10.4807 9.29479 10.4873 9.35479 10.4873C9.46812 10.4873 9.55479 10.4473 9.62812 10.374L10.1348 9.87398C10.3015 9.70732 10.4615 9.58065 10.6148 9.50065C10.7681 9.40732 10.9215 9.36065 11.0881 9.36065C11.2148 9.36065 11.3481 9.38732 11.4948 9.44732C11.6415 9.50732 11.7948 9.59398 11.9615 9.70732L14.1681 11.274C14.3415 11.394 14.4615 11.534 14.5348 11.7006C14.6015 11.8673 14.6415 12.034 14.6415 12.2207Z" stroke="#EDB021" stroke-width="1.2" stroke-miterlimit="10"/>
</svg>
