<svg width="65" height="65" viewBox="0 0 65 65" fill="none" xmlns="http://www.w3.org/2000/svg">
<path d="M0.941406 59.4673C0.941406 62.4106 3.32747 64.7967 6.27082 64.7967H59.5649C62.5083 64.7967 64.8943 62.4106 64.8943 59.4673V17.4982H51.9515C49.0081 17.4982 46.6221 15.1121 46.6221 12.1688V0.84375H6.27082C3.32746 0.84375 0.941406 3.2298 0.941406 6.17316V59.4673Z" fill="#FFEDD8"/>
<path d="M64.8943 17.4982L46.6221 0.84375V12.1688C46.6221 15.1121 49.0081 17.4982 51.9515 17.4982H64.8943Z" fill="#EDB021"/>
<path d="M9.81255 41.6019V26.2532H14.7049C14.8329 26.2532 15.0851 26.2568 15.4617 26.2639C15.8454 26.271 16.2149 26.2959 16.5702 26.3385C17.7853 26.4948 18.8121 26.9283 19.6506 27.6389C20.4962 28.3424 21.1358 29.2412 21.5692 30.3356C22.0027 31.4299 22.2194 32.6272 22.2194 33.9276C22.2194 35.228 22.0027 36.4253 21.5692 37.5196C21.1358 38.6139 20.4962 39.5164 19.6506 40.2269C18.8121 40.9304 17.7853 41.3603 16.5702 41.5167C16.2221 41.5593 15.8561 41.5842 15.4724 41.5913C15.0887 41.5984 14.8329 41.6019 14.7049 41.6019H9.81255ZM12.424 39.1824H14.7049C14.9181 39.1824 15.1881 39.1753 15.515 39.1611C15.849 39.1468 16.1439 39.1149 16.3997 39.0651C17.1245 38.9301 17.7143 38.6068 18.1691 38.0952C18.6238 37.5836 18.9578 36.9618 19.171 36.2299C19.3913 35.498 19.5014 34.7305 19.5014 33.9276C19.5014 33.0962 19.3913 32.3145 19.171 31.5826C18.9507 30.8507 18.6096 30.2361 18.1477 29.7387C17.693 29.2412 17.1103 28.925 16.3997 28.79C16.1439 28.7332 15.849 28.7012 15.515 28.6941C15.1881 28.6799 14.9181 28.6728 14.7049 28.6728H12.424V39.1824ZM31.2303 41.9217C29.6954 41.9217 28.3808 41.5877 27.2865 40.9198C26.1922 40.2447 25.3502 39.3067 24.7604 38.1058C24.1777 36.9049 23.8864 35.5122 23.8864 33.9276C23.8864 32.343 24.1777 30.9502 24.7604 29.7493C25.3502 28.5484 26.1922 27.614 27.2865 26.946C28.3808 26.271 29.6954 25.9335 31.2303 25.9335C32.7652 25.9335 34.0797 26.271 35.174 26.946C36.2755 27.614 37.1175 28.5484 37.7002 29.7493C38.29 30.9502 38.5849 32.343 38.5849 33.9276C38.5849 35.5122 38.29 36.9049 37.7002 38.1058C37.1175 39.3067 36.2755 40.2447 35.174 40.9198C34.0797 41.5877 32.7652 41.9217 31.2303 41.9217ZM31.2303 39.5021C32.2606 39.5092 33.1169 39.2819 33.7991 38.82C34.4883 38.3581 35.0035 37.7079 35.3446 36.8694C35.6928 36.0309 35.8669 35.0503 35.8669 33.9276C35.8669 32.8048 35.6928 31.8313 35.3446 31.0071C35.0035 30.1757 34.4883 29.529 33.7991 29.0672C33.1169 28.6053 32.2606 28.3672 31.2303 28.353C30.1999 28.3459 29.3437 28.5733 28.6615 29.0352C27.9793 29.4971 27.4642 30.1472 27.116 30.9857C26.7749 31.8242 26.6044 32.8048 26.6044 33.9276C26.6044 35.0503 26.7749 36.0274 27.116 36.8588C27.4571 37.683 27.9687 38.3261 28.6509 38.788C29.3401 39.2499 30.1999 39.4879 31.2303 39.5021ZM47.1977 41.9217C45.6628 41.9217 44.3482 41.5877 43.2539 40.9198C42.1596 40.2447 41.3176 39.3067 40.7278 38.1058C40.1451 36.9049 39.8538 35.5122 39.8538 33.9276C39.8538 32.343 40.1451 30.9502 40.7278 29.7493C41.3176 28.5484 42.1596 27.614 43.2539 26.946C44.3482 26.271 45.6628 25.9335 47.1977 25.9335C48.9671 25.9335 50.4415 26.3776 51.6211 27.2658C52.8007 28.1469 53.6285 29.3372 54.1046 30.8365L51.5145 31.5507C51.2161 30.5487 50.708 29.7671 49.9903 29.2057C49.2726 28.6372 48.3417 28.353 47.1977 28.353C46.1673 28.353 45.3075 28.584 44.6183 29.0458C43.9361 29.5077 43.4209 30.1579 43.0727 30.9964C42.7317 31.8278 42.5576 32.8048 42.5505 33.9276C42.5505 35.0503 42.721 36.0309 43.0621 36.8694C43.4103 37.7008 43.929 38.3474 44.6183 38.8093C45.3075 39.2712 46.1673 39.5021 47.1977 39.5021C48.3417 39.5021 49.2726 39.2179 49.9903 38.6494C50.708 38.081 51.2161 37.2993 51.5145 36.3045L54.1046 37.0186C53.6285 38.518 52.8007 39.7118 51.6211 40.6C50.4415 41.4811 48.9671 41.9217 47.1977 41.9217Z" fill="#EDB021"/>
</svg>
