<svg width="76" height="18" viewBox="0 0 76 18" fill="none" xmlns="http://www.w3.org/2000/svg">
<g clip-path="url(#clip0_4576_95458)">
<path d="M39.6481 4.95363H37.1937L35.4569 8.00591H34.5628L34.5343 1.40021H32.2109V13.3303H34.5343L34.5628 10.056H35.4511L37.7575 13.3303H40.3314L37.3247 8.99105L39.6481 4.95363Z" fill="white" fill-opacity="0.3"/>
<path d="M57.228 8.88278C56.756 8.57731 56.2444 8.33778 55.7076 8.17098L55.195 7.97731L55.0584 7.92611C54.7395 7.80651 54.4035 7.68124 54.3921 7.35664C54.3891 7.26044 54.4105 7.16511 54.4543 7.07951C54.4982 6.99384 54.563 6.92071 54.6427 6.86691C54.8109 6.75091 55.008 6.68391 55.2121 6.67331C55.6571 6.64256 56.0981 6.77404 56.4536 7.04344L56.5162 7.08331L57.7576 5.65395L57.695 5.6027C57.5404 5.46492 57.3726 5.34284 57.1938 5.23824C56.8737 5.05507 56.5254 4.92614 56.1631 4.8567C55.6412 4.74568 55.1019 4.74568 54.58 4.8567C54.0755 4.92348 53.5968 5.11966 53.1906 5.42616C52.9308 5.62946 52.7135 5.88196 52.5514 6.16922C52.3892 6.45649 52.2851 6.77291 52.2452 7.10038C52.174 7.69131 52.3242 8.28778 52.6666 8.77458C53.1216 9.27838 53.7164 9.63524 54.375 9.79958L54.4775 9.83378L54.711 9.91351C55.5538 10.1982 55.793 10.3121 55.9296 10.483C55.9932 10.5689 56.029 10.6722 56.0322 10.779C56.0322 11.1834 55.5367 11.3485 55.2008 11.451C54.9658 11.4952 54.7243 11.4906 54.4912 11.4377C54.2581 11.3848 54.0383 11.2847 53.8454 11.1435C53.5332 10.9348 53.266 10.6656 53.0596 10.352C52.9286 10.4886 51.6416 11.7585 51.6644 11.7813L51.7042 11.8382C52.3245 12.6146 53.1932 13.1536 54.1643 13.3644C54.3862 13.4073 54.6107 13.4358 54.8363 13.4498H55.0698C55.8368 13.4659 56.5884 13.232 57.2109 12.7836C57.632 12.4857 57.9551 12.0695 58.1392 11.5877C58.2511 11.2642 58.2908 10.9202 58.2554 10.5798C58.22 10.2394 58.1103 9.91084 57.9342 9.61738C57.7541 9.32471 57.5133 9.07424 57.228 8.88278Z" fill="white" fill-opacity="0.3"/>
<path d="M64.7371 8.88287C64.2671 8.5774 63.7574 8.33794 63.2224 8.17107L62.7041 7.9774L62.5732 7.9262C62.2486 7.8066 61.9183 7.68134 61.9012 7.35674C61.9027 7.26074 61.9267 7.16647 61.9712 7.08147C62.0157 6.9964 62.0795 6.92294 62.1574 6.867C62.3257 6.751 62.5228 6.684 62.7269 6.6734C63.1717 6.64369 63.6123 6.77507 63.9683 7.04354L64.0252 7.0834L65.2667 5.65404L65.2098 5.60279C65.0542 5.46366 64.8843 5.34148 64.7029 5.23834C64.3847 5.05536 64.0383 4.92644 63.6779 4.8568C63.1542 4.74565 62.6129 4.74565 62.0891 4.8568C61.5851 4.92556 61.1069 5.12154 60.6996 5.42626C60.4381 5.62765 60.219 5.87873 60.0548 6.16506C59.8906 6.4514 59.7846 6.76734 59.743 7.09474C59.6684 7.68594 59.8188 8.28354 60.1644 8.769C60.6193 9.2728 61.2141 9.6296 61.8727 9.794L61.9695 9.82814L62.203 9.90787C63.0515 10.1926 63.2907 10.3065 63.4274 10.4773C63.493 10.5619 63.5272 10.6665 63.5242 10.7735C63.5242 11.1778 63.0344 11.3429 62.6984 11.4454C62.4626 11.4897 62.2202 11.4852 61.9862 11.4323C61.7521 11.3795 61.5314 11.2793 61.3374 11.1379C61.0278 10.9261 60.7611 10.6575 60.5516 10.3464C60.4263 10.4831 59.1393 11.7529 59.1564 11.7757L59.202 11.8327C59.8222 12.609 60.691 13.148 61.662 13.3588C61.8839 13.4021 62.1084 13.4306 62.334 13.4442H62.5674C63.3346 13.4603 64.0861 13.2265 64.7086 12.7779C65.1297 12.4801 65.4528 12.0639 65.6368 11.5821C65.7488 11.2587 65.7885 10.9146 65.7531 10.5742C65.7176 10.2337 65.608 9.9052 65.4318 9.6118C65.254 9.32267 65.0173 9.07434 64.7371 8.88287Z" fill="white" fill-opacity="0.3"/>
<path d="M47.2777 4.95448V5.7745H47.1751C46.5392 5.13771 45.6777 4.77756 44.7777 4.77225C44.2261 4.76135 43.6783 4.86676 43.17 5.08164C42.6618 5.29651 42.2045 5.61602 41.8279 6.01936C41.0685 6.86982 40.6613 7.97742 40.689 9.11722C40.6596 10.2762 41.066 11.404 41.8279 12.2777C42.1955 12.6813 42.6456 13.0011 43.1477 13.2153C43.6499 13.4295 44.1921 13.5331 44.7379 13.5192C45.6389 13.5022 46.5055 13.1697 47.1865 12.5795H47.2777V13.3141H49.6921V4.95448H47.2777ZM47.3973 9.16275C47.4215 9.83642 47.1964 10.4954 46.7651 11.0135C46.5584 11.245 46.3033 11.4282 46.018 11.5502C45.7326 11.6723 45.4239 11.7301 45.1137 11.7196C44.8129 11.7247 44.5148 11.6618 44.2417 11.5356C43.9685 11.4094 43.7274 11.2231 43.5363 10.9908C43.1101 10.4619 42.8915 9.79575 42.9213 9.11722C42.9019 8.45908 43.1249 7.81675 43.5477 7.31202C43.7424 7.08315 43.9853 6.90015 44.2589 6.77608C44.5327 6.65206 44.8303 6.59006 45.1308 6.59452C45.4389 6.58492 45.7453 6.64379 46.0279 6.76688C46.3105 6.88995 46.5623 7.07422 46.7651 7.30635C47.1963 7.82675 47.4213 8.48742 47.3973 9.16275Z" fill="white" fill-opacity="0.3"/>
<path d="M73.5388 4.9544V5.77441H73.4368C72.8021 5.13901 71.9428 4.77897 71.0448 4.77217C70.4921 4.76189 69.9441 4.86756 69.4348 5.08237C68.9261 5.29718 68.4674 5.61635 68.0894 6.01928C67.3301 6.86971 66.9228 7.97731 66.9508 9.11711C66.9208 10.276 67.3274 11.4038 68.0894 12.2776C68.4568 12.6812 68.9068 13.001 69.4094 13.2152C69.9114 13.4294 70.4534 13.533 70.9994 13.519C71.9001 13.5021 72.7668 13.1696 73.4481 12.5794H73.5388V13.314H75.9534V4.9544H73.5388ZM73.6588 9.16271C73.6854 9.83678 73.4601 10.4966 73.0268 11.0134C72.8201 11.2449 72.5648 11.4282 72.2794 11.5502C71.9941 11.6722 71.6854 11.73 71.3754 11.7196C71.0741 11.7246 70.7761 11.6617 70.5034 11.5355C70.2301 11.4092 69.9888 11.223 69.7974 10.9906C69.3714 10.4618 69.1528 9.79564 69.1828 9.11711C69.1634 8.45898 69.3861 7.81664 69.8094 7.31198C70.0041 7.08304 70.2468 6.90004 70.5201 6.77604C70.7941 6.65198 71.0921 6.58997 71.3921 6.59443C71.7001 6.58484 72.0068 6.6437 72.2894 6.76678C72.5721 6.88991 72.8234 7.07411 73.0268 7.30624C73.4601 7.82531 73.6854 8.48691 73.6588 9.16271Z" fill="white" fill-opacity="0.3"/>
<path d="M16.3477 0C11.335 0 7.34766 4.04431 7.34766 9C7.34766 14.0127 11.3919 18 16.3477 18C21.3033 18 25.3477 13.9557 25.3477 9C25.3477 4.04431 21.3033 0 16.3477 0ZM16.3477 12.3038C14.5249 12.3038 12.9869 10.7658 12.9869 8.94307C12.9869 7.12027 14.5249 5.58228 16.3477 5.58228C18.1704 5.58228 19.7084 7.12027 19.7084 8.94307C19.6515 10.8228 18.1704 12.3038 16.3477 12.3038Z" fill="white" fill-opacity="0.3"/>
<path d="M7.29113 2.56445V15.6657H4.10127L0 2.56445H7.29113Z" fill="white" fill-opacity="0.3"/>
</g>
<defs>
<clipPath id="clip0_4576_95458">
<rect width="76" height="18" fill="white"/>
</clipPath>
</defs>
</svg>
