<svg width="505" height="430" viewBox="0 0 505 430" fill="none" xmlns="http://www.w3.org/2000/svg">
<g filter="url(#filter0_d_2800_127606)">
<path d="M20.1337 564C104.134 611 502.14 588.5 514.134 564L412.543 461.756C382.914 431.937 383.467 383.625 413.77 354.492L380.477 346.782C307.305 329.839 231.147 330.602 158.33 349.008L136.634 354.492C170.141 382.244 170.733 433.425 137.86 461.927C101.371 493.565 55.7168 533.148 20.1337 564Z" fill="url(#paint0_linear_2800_127606)"/>
<path d="M20.1337 564C104.134 611 502.14 588.5 514.134 564L412.543 461.756C382.914 431.937 383.467 383.625 413.77 354.492L380.477 346.782C307.305 329.839 231.147 330.602 158.33 349.008L136.634 354.492C170.141 382.244 170.733 433.425 137.86 461.927C101.371 493.565 55.7168 533.148 20.1337 564Z" fill="url(#paint1_linear_2800_127606)" fill-opacity="0.2"/>
<path d="M514.134 564C541.64 529.5 537.141 273.5 514.134 258L458.5 311.487L413.77 354.492C383.467 383.625 382.914 431.937 412.543 461.756L514.134 564Z" fill="url(#paint2_linear_2800_127606)"/>
<path d="M20.1337 258C-3.35978 269 -9.86629 507.5 20.1337 564C55.7168 533.148 101.371 493.565 137.86 461.927C170.733 433.425 170.141 382.244 136.634 354.492L78.3837 306.246L20.1337 258Z" fill="url(#paint3_linear_2800_127606)"/>
<path fill-rule="evenodd" clip-rule="evenodd" d="M458.5 210.314V311.487L514.134 258L458.5 210.314ZM78.3837 306.246V208.873L20.1337 258L78.3837 306.246Z" fill="url(#paint4_linear_2800_127606)"/>
<path d="M136.634 354.492L158.33 349.008C231.147 330.602 307.305 329.839 380.477 346.782L413.77 354.492L458.5 311.487V210.314V59C458.5 35.804 439.696 17 416.5 17H120.384C97.1878 17 78.3837 35.804 78.3837 59V208.873V306.246L136.634 354.492Z" fill="#EEEEEE"/>
<path d="M136.634 354.492L158.33 349.008C231.147 330.602 307.305 329.839 380.477 346.782L413.77 354.492L458.5 311.487V210.314V59C458.5 35.804 439.696 17 416.5 17H120.384C97.1878 17 78.3837 35.804 78.3837 59V208.873V306.246L136.634 354.492Z" fill="url(#paint5_linear_2800_127606)" fill-opacity="0.2"/>
<rect x="195.496" y="91" width="141.124" height="18.2488" rx="9.12442" fill="url(#paint6_linear_2800_127606)"/>
<rect x="195.496" y="91" width="141.124" height="18.2488" rx="9.12442" fill="url(#paint7_linear_2800_127606)" fill-opacity="0.4"/>
<rect x="159" y="140.879" width="215.336" height="13.3825" rx="6.69124" fill="url(#paint8_linear_2800_127606)"/>
<rect x="159" y="140.879" width="215.336" height="13.3825" rx="6.69124" fill="url(#paint9_linear_2800_127606)" fill-opacity="0.4"/>
<rect x="159" y="174.945" width="215.336" height="13.3825" rx="6.69124" fill="url(#paint10_linear_2800_127606)"/>
<rect x="159" y="174.945" width="215.336" height="13.3825" rx="6.69124" fill="url(#paint11_linear_2800_127606)" fill-opacity="0.4"/>
<rect x="159" y="209.008" width="215.336" height="13.3825" rx="6.69124" fill="url(#paint12_linear_2800_127606)"/>
<rect x="159" y="209.008" width="215.336" height="13.3825" rx="6.69124" fill="url(#paint13_linear_2800_127606)" fill-opacity="0.4"/>
<rect x="159" y="243.074" width="131.392" height="13.3825" rx="6.69124" fill="url(#paint14_linear_2800_127606)"/>
<rect x="159" y="243.074" width="131.392" height="13.3825" rx="6.69124" fill="url(#paint15_linear_2800_127606)" fill-opacity="0.4"/>
</g>
<defs>
<filter id="filter0_d_2800_127606" x="0" y="0" width="551.113" height="591.447" filterUnits="userSpaceOnUse" color-interpolation-filters="sRGB">
<feFlood flood-opacity="0" result="BackgroundImageFix"/>
<feColorMatrix in="SourceAlpha" type="matrix" values="0 0 0 0 0 0 0 0 0 0 0 0 0 0 0 0 0 0 127 0" result="hardAlpha"/>
<feOffset dx="10" dy="-9"/>
<feGaussianBlur stdDeviation="4"/>
<feComposite in2="hardAlpha" operator="out"/>
<feColorMatrix type="matrix" values="0 0 0 0 0 0 0 0 0 0 0 0 0 0 0 0 0 0 0.12 0"/>
<feBlend mode="normal" in2="BackgroundImageFix" result="effect1_dropShadow_2800_127606"/>
<feBlend mode="normal" in="SourceGraphic" in2="effect1_dropShadow_2800_127606" result="shape"/>
</filter>
<linearGradient id="paint0_linear_2800_127606" x1="266.141" y1="339.5" x2="267" y2="591" gradientUnits="userSpaceOnUse">
<stop stop-color="#EDB021"/>
<stop offset="1" stop-color="#EDB021" stop-opacity="0.85"/>
</linearGradient>
<linearGradient id="paint1_linear_2800_127606" x1="174.5" y1="436" x2="390" y2="436.5" gradientUnits="userSpaceOnUse">
<stop stop-color="#7A7A7A" stop-opacity="0.14"/>
<stop offset="0.530233" stop-color="white" stop-opacity="0.66"/>
<stop offset="1" stop-color="#929292" stop-opacity="0.14"/>
</linearGradient>
<linearGradient id="paint2_linear_2800_127606" x1="393" y1="407.5" x2="499.89" y2="410.933" gradientUnits="userSpaceOnUse">
<stop stop-color="#EDB021"/>
<stop offset="1" stop-color="#EDB021" stop-opacity="0.89"/>
</linearGradient>
<linearGradient id="paint3_linear_2800_127606" x1="160.5" y1="407.5" x2="46.6655" y2="411.841" gradientUnits="userSpaceOnUse">
<stop stop-color="#EDB021"/>
<stop offset="1" stop-color="#D7A020"/>
</linearGradient>
<linearGradient id="paint4_linear_2800_127606" x1="266.557" y1="17" x2="266.557" y2="466.204" gradientUnits="userSpaceOnUse">
<stop stop-color="#EDB021"/>
<stop offset="1" stop-color="#EDB021" stop-opacity="0.72"/>
</linearGradient>
<linearGradient id="paint5_linear_2800_127606" x1="267" y1="261" x2="267" y2="475" gradientUnits="userSpaceOnUse">
<stop stop-color="white"/>
<stop offset="1"/>
</linearGradient>
<linearGradient id="paint6_linear_2800_127606" x1="266.058" y1="91" x2="266.058" y2="109.249" gradientUnits="userSpaceOnUse">
<stop stop-color="#191919"/>
<stop offset="1" stop-color="#181818"/>
</linearGradient>
<linearGradient id="paint7_linear_2800_127606" x1="266.058" y1="91" x2="266.058" y2="109.249" gradientUnits="userSpaceOnUse">
<stop stop-color="white"/>
<stop offset="0.682294" stop-color="#383838" stop-opacity="0.46875"/>
<stop offset="1" stop-color="white" stop-opacity="0"/>
</linearGradient>
<linearGradient id="paint8_linear_2800_127606" x1="266.668" y1="140.879" x2="266.668" y2="154.261" gradientUnits="userSpaceOnUse">
<stop stop-color="#191919"/>
<stop offset="1" stop-color="#181818"/>
</linearGradient>
<linearGradient id="paint9_linear_2800_127606" x1="266.668" y1="140.879" x2="266.668" y2="154.261" gradientUnits="userSpaceOnUse">
<stop stop-color="white"/>
<stop offset="0.682294" stop-color="#383838" stop-opacity="0.46875"/>
<stop offset="1" stop-color="white" stop-opacity="0"/>
</linearGradient>
<linearGradient id="paint10_linear_2800_127606" x1="266.668" y1="174.945" x2="266.668" y2="188.328" gradientUnits="userSpaceOnUse">
<stop stop-color="#191919"/>
<stop offset="1" stop-color="#181818"/>
</linearGradient>
<linearGradient id="paint11_linear_2800_127606" x1="266.668" y1="174.945" x2="266.668" y2="188.328" gradientUnits="userSpaceOnUse">
<stop stop-color="white"/>
<stop offset="0.682294" stop-color="#383838" stop-opacity="0.46875"/>
<stop offset="1" stop-color="white" stop-opacity="0"/>
</linearGradient>
<linearGradient id="paint12_linear_2800_127606" x1="266.668" y1="209.008" x2="266.668" y2="222.39" gradientUnits="userSpaceOnUse">
<stop stop-color="#191919"/>
<stop offset="1" stop-color="#181818"/>
</linearGradient>
<linearGradient id="paint13_linear_2800_127606" x1="266.668" y1="209.008" x2="266.668" y2="222.39" gradientUnits="userSpaceOnUse">
<stop stop-color="white"/>
<stop offset="0.682294" stop-color="#383838" stop-opacity="0.46875"/>
<stop offset="1" stop-color="white" stop-opacity="0"/>
</linearGradient>
<linearGradient id="paint14_linear_2800_127606" x1="224.696" y1="243.074" x2="224.696" y2="256.457" gradientUnits="userSpaceOnUse">
<stop stop-color="#191919"/>
<stop offset="1" stop-color="#181818"/>
</linearGradient>
<linearGradient id="paint15_linear_2800_127606" x1="224.696" y1="243.074" x2="224.696" y2="256.457" gradientUnits="userSpaceOnUse">
<stop stop-color="white"/>
<stop offset="0.682294" stop-color="#383838" stop-opacity="0.46875"/>
<stop offset="1" stop-color="white" stop-opacity="0"/>
</linearGradient>
</defs>
</svg>
