<svg width="232" height="206" viewBox="0 0 232 206" fill="none" xmlns="http://www.w3.org/2000/svg">
<g clip-path="url(#clip0_2800_127451)">
<path d="M228.026 58.6564L216.68 47.3097C211.379 42.0092 202.755 42.01 197.455 47.3097L173.555 71.2099V-5.60937C173.555 -16.8528 164.407 -26 153.164 -26H20.3984C9.15504 -26 0.0078125 -16.8528 0.0078125 -5.60937V185.61C0.0078125 196.853 9.15504 206 20.3984 206H153.164C164.407 206 173.555 196.853 173.555 185.61V131.673L228.026 77.8811C233.326 72.5811 233.326 63.9565 228.026 58.6564ZM146.736 139.051L126.29 148.593L135.823 128.167L186.561 77.4283L197.779 88.6459L146.736 139.051ZM159.961 185.61C159.961 189.357 156.912 192.406 153.164 192.406H20.3984C16.6507 192.406 13.6016 189.357 13.6016 185.61V-5.60937C13.6016 -9.35717 16.6507 -12.4063 20.3984 -12.4063H153.164C156.912 -12.4063 159.961 -9.35717 159.961 -5.60937V84.8036C122.27 122.494 124.732 119.786 124.01 121.333L106.067 159.782C104.859 162.373 105.399 165.442 107.42 167.462C109.441 169.484 112.512 170.024 115.101 168.816L153.55 150.873C154.96 150.214 155.192 149.806 159.961 145.096V185.61ZM207.451 79.0945L196.173 67.8165L207.068 56.9218L218.41 68.272L207.451 79.0945Z" fill="#EDB021"/>
<path d="M36.2578 31.5468H137.758C141.512 31.5468 144.555 28.5037 144.555 24.75C144.555 20.9962 141.512 17.9531 137.758 17.9531H36.2578C32.5042 17.9531 29.4609 20.9962 29.4609 24.75C29.4609 28.5037 32.5042 31.5468 36.2578 31.5468Z" fill="#EDB021"/>
<path d="M36.2578 67.7968H116.008C119.762 67.7968 122.805 64.7537 122.805 60.9999C122.805 57.2462 119.762 54.2031 116.008 54.2031H36.2578C32.5042 54.2031 29.4609 57.2462 29.4609 60.9999C29.4609 64.7537 32.5042 67.7968 36.2578 67.7968Z" fill="#EDB021"/>
<path d="M94.2579 90.4531H36.2578C32.5042 90.4531 29.4609 93.4962 29.4609 97.2499C29.4609 101.004 32.5042 104.047 36.2578 104.047H94.2579C98.0117 104.047 101.055 101.004 101.055 97.2499C101.055 93.4962 98.0117 90.4531 94.2579 90.4531Z" fill="#EDB021"/>
</g>
<defs>
<clipPath id="clip0_2800_127451">
<rect width="232" height="232" fill="white" transform="translate(0 -26)"/>
</clipPath>
</defs>
</svg>
