<svg width="65" height="65" viewBox="0 0 65 65" fill="none" xmlns="http://www.w3.org/2000/svg">
<path d="M0.515625 59.4673C0.515625 62.4106 2.90168 64.7967 5.84503 64.7967H59.1392C62.0825 64.7967 64.4686 62.4106 64.4686 59.4673V17.4982H51.5257C48.5824 17.4982 46.1963 15.1121 46.1963 12.1688V0.84375H5.84504C2.90168 0.84375 0.515625 3.2298 0.515625 6.17316V59.4673Z" fill="#FFEDD8"/>
<path d="M64.4686 17.4982L46.1963 0.84375V12.1688C46.1963 15.1121 48.5824 17.4982 51.5257 17.4982H64.4686Z" fill="#EDB021"/>
<path d="M12.8711 41.6019V26.2532H19.2131C19.3624 26.2532 19.5542 26.2603 19.7887 26.2745C20.0232 26.2816 20.2399 26.303 20.4389 26.3385C21.3271 26.4735 22.059 26.7684 22.6346 27.2232C23.2173 27.678 23.6472 28.2535 23.9243 28.9499C24.2086 29.6392 24.3507 30.4066 24.3507 31.2522C24.3507 32.0907 24.2086 32.8581 23.9243 33.5545C23.6401 34.2438 23.2066 34.8158 22.624 35.2706C22.0484 35.7254 21.32 36.0203 20.4389 36.1553C20.2399 36.1837 20.0197 36.205 19.7781 36.2192C19.5436 36.2334 19.3553 36.2405 19.2131 36.2405H15.4399V41.6019H12.8711ZM15.4399 33.8423H19.1066C19.2487 33.8423 19.4086 33.8352 19.5862 33.821C19.7638 33.8068 19.9273 33.7784 20.0765 33.7357C20.5029 33.6291 20.8368 33.4408 21.0784 33.1708C21.3271 32.9008 21.5012 32.5952 21.6007 32.2541C21.7073 31.9131 21.7606 31.5791 21.7606 31.2522C21.7606 30.9253 21.7073 30.5914 21.6007 30.2503C21.5012 29.9021 21.3271 29.593 21.0784 29.323C20.8368 29.0529 20.5029 28.8646 20.0765 28.758C19.9273 28.7154 19.7638 28.6905 19.5862 28.6834C19.4086 28.6692 19.2487 28.6621 19.1066 28.6621H15.4399V33.8423ZM26.4861 41.6019V26.2532H31.3785C31.5064 26.2532 31.7587 26.2568 32.1353 26.2639C32.519 26.271 32.8885 26.2959 33.2438 26.3385C34.4589 26.4948 35.4857 26.9283 36.3242 27.6389C37.1698 28.3424 37.8093 29.2412 38.2428 30.3356C38.6763 31.4299 38.893 32.6272 38.893 33.9276C38.893 35.228 38.6763 36.4253 38.2428 37.5196C37.8093 38.6139 37.1698 39.5164 36.3242 40.2269C35.4857 40.9304 34.4589 41.3603 33.2438 41.5167C32.8956 41.5593 32.5297 41.5842 32.146 41.5913C31.7622 41.5984 31.5064 41.6019 31.3785 41.6019H26.4861ZM29.0975 39.1824H31.3785C31.5917 39.1824 31.8617 39.1753 32.1886 39.1611C32.5226 39.1468 32.8175 39.1149 33.0733 39.0651C33.7981 38.9301 34.3879 38.6068 34.8426 38.0952C35.2974 37.5836 35.6314 36.9618 35.8446 36.2299C36.0648 35.498 36.175 34.7305 36.175 33.9276C36.175 33.0962 36.0648 32.3145 35.8446 31.5826C35.6243 30.8507 35.2832 30.2361 34.8213 29.7387C34.3665 29.2412 33.7839 28.925 33.0733 28.79C32.8175 28.7332 32.5226 28.7012 32.1886 28.6941C31.8617 28.6799 31.5917 28.6728 31.3785 28.6728H29.0975V39.1824ZM41.4126 41.6019V26.2532H50.6538V28.822H43.9814V32.6485H49.3748V35.2066H43.9814V41.6019H41.4126Z" fill="#EDB021"/>
</svg>
