<svg width="204" height="231" viewBox="0 0 204 231" fill="none" xmlns="http://www.w3.org/2000/svg">
<g filter="url(#filter0_bd_2800_127469)">
<path fill-rule="evenodd" clip-rule="evenodd" d="M76.7222 31.0429C74.5141 32.622 73.0429 35.031 72.6465 37.7166L54.9727 157.446C54.1662 162.91 57.9416 167.993 63.4052 168.799L169.933 184.524C175.396 185.331 180.479 181.555 181.286 176.092L198.956 56.3878C199.354 53.6871 198.632 50.9409 196.955 48.7864L150.996 -10.2775C147.701 -14.5121 141.651 -15.3915 137.287 -12.2703L76.7222 31.0429ZM135.548 12.4975C136.719 15.454 140.065 16.9017 143.021 15.7309C145.978 14.5602 147.425 11.2144 146.254 8.25791C145.084 5.30141 141.738 3.85377 138.781 5.02451C135.825 6.19525 134.377 9.54103 135.548 12.4975Z" fill="white" fill-opacity="0.6"/>
<path d="M105.699 99.1995L106.801 91.7337L131.373 95.3609C131.759 95.4179 132.232 95.4754 132.791 95.5333C133.378 95.5705 134.036 95.5442 134.766 95.4544C136.853 95.1947 138.451 94.406 139.559 93.0883C140.67 91.7464 141.37 90.097 141.659 88.1399C141.834 86.956 141.828 85.7454 141.64 84.508C141.48 83.25 141.045 82.0995 140.335 81.0565C139.649 80.0172 138.62 79.211 137.248 78.6382C136.645 78.3764 136.019 78.1852 135.37 78.0647C134.745 77.9478 134.276 77.8662 133.962 77.8198L120.299 75.803L121.508 67.6124L135.533 69.6827C135.799 69.7219 136.317 69.8107 137.086 69.949C137.88 70.0909 138.749 70.3056 139.695 70.5932C142.623 71.4945 144.951 72.8628 146.68 74.698C148.433 76.5368 149.606 78.7096 150.199 81.2165C150.819 83.7028 150.921 86.3593 150.503 89.1862C149.865 93.5111 148.238 96.9246 145.622 99.4269C143.006 101.929 139.425 103.191 134.88 103.211C133.895 103.189 133.001 103.143 132.197 103.074C131.42 102.984 130.899 102.919 130.633 102.88L105.699 99.1995ZM103.944 111.087L104.955 104.237L135.869 108.8L134.858 115.65L103.944 111.087ZM108.078 118.955L115.782 66.7671L124.516 68.0564L116.812 120.245L108.078 118.955Z" fill="#EDB021"/>
</g>
<defs>
<filter id="filter0_bd_2800_127469" x="50.8633" y="-19.137" width="152.199" height="206.77" filterUnits="userSpaceOnUse" color-interpolation-filters="sRGB">
<feFlood flood-opacity="0" result="BackgroundImageFix"/>
<feGaussianBlur in="BackgroundImageFix" stdDeviation="1"/>
<feComposite in2="SourceAlpha" operator="in" result="effect1_backgroundBlur_2800_127469"/>
<feColorMatrix in="SourceAlpha" type="matrix" values="0 0 0 0 0 0 0 0 0 0 0 0 0 0 0 0 0 0 127 0" result="hardAlpha"/>
<feOffset dy="-1"/>
<feGaussianBlur stdDeviation="2"/>
<feComposite in2="hardAlpha" operator="out"/>
<feColorMatrix type="matrix" values="0 0 0 0 0 0 0 0 0 0 0 0 0 0 0 0 0 0 0.15 0"/>
<feBlend mode="normal" in2="effect1_backgroundBlur_2800_127469" result="effect2_dropShadow_2800_127469"/>
<feBlend mode="normal" in="SourceGraphic" in2="effect2_dropShadow_2800_127469" result="shape"/>
</filter>
</defs>
</svg>
