<svg width="20" height="20" viewBox="0 0 20 20" fill="none" xmlns="http://www.w3.org/2000/svg">
<path d="M6.411 0.733984H6.41087L3.5032 0.733984L3.50306 0.733984C2.76845 0.734991 2.06421 1.02726 1.54476 1.54671C1.02531 2.06616 0.733038 2.7704 0.732031 3.50501V3.50515L0.732031 6.41282L0.732031 6.41296C0.733038 7.14757 1.02531 7.85181 1.54476 8.37126C2.06421 8.89071 2.76845 9.18298 3.50306 9.18398H3.5032H6.41087H6.411C7.14562 9.18298 7.84985 8.89071 8.3693 8.37126C8.88875 7.85181 9.18102 7.14757 9.18203 6.41296V6.41282V3.50515V3.50501C9.18102 2.7704 8.88875 2.06616 8.3693 1.54671C7.84985 1.02726 7.14562 0.734991 6.411 0.733984ZM7.1487 6.41271C7.14848 6.60836 7.07067 6.79593 6.93232 6.93428C6.79398 7.07262 6.6064 7.15044 6.41076 7.15065H3.50331C3.30766 7.15044 3.12008 7.07262 2.98174 6.93428C2.84342 6.79596 2.76561 6.60843 2.76536 6.41282C2.76536 6.41278 2.76536 6.41275 2.76536 6.41271V3.50526C2.76536 3.50523 2.76536 3.50519 2.76536 3.50516C2.76561 3.30955 2.84342 3.12201 2.98174 2.98369C3.12006 2.84537 3.30759 2.76756 3.5032 2.76732C3.50323 2.76732 3.50327 2.76732 3.50331 2.76732H6.41076C6.41079 2.76732 6.41082 2.76732 6.41086 2.76732C6.60647 2.76756 6.794 2.84537 6.93232 2.98369C7.07067 3.12204 7.14848 3.30961 7.1487 3.50526V6.41271Z" fill="black" stroke="#1B1D1F" stroke-width="0.2"/>
<path d="M16.493 0.733984H16.4929L13.5852 0.733984L13.5851 0.733984C12.8505 0.734991 12.1462 1.02726 11.6268 1.54671C11.1073 2.06616 10.8151 2.7704 10.8141 3.50501V3.50515L10.8141 6.41282L10.8141 6.41296C10.8151 7.14757 11.1073 7.85181 11.6268 8.37126C12.1462 8.89071 12.8505 9.18298 13.5851 9.18398H13.5852H16.4929H16.493C17.2276 9.18298 17.9319 8.89071 18.4513 8.37126C18.9708 7.85181 19.2631 7.14757 19.2641 6.41296V6.41282V3.50515V3.50501C19.2631 2.7704 18.9708 2.06616 18.4513 1.54671C17.9319 1.02726 17.2276 0.734991 16.493 0.733984ZM17.2307 6.41271C17.2305 6.60836 17.1527 6.79593 17.0144 6.93428C16.876 7.07262 16.6884 7.15044 16.4928 7.15065H13.5853C13.3897 7.15044 13.2021 7.07262 13.0638 6.93428C12.9255 6.79596 12.8476 6.60843 12.8474 6.41282C12.8474 6.41278 12.8474 6.41275 12.8474 6.41271V3.50526C12.8474 3.50523 12.8474 3.50519 12.8474 3.50516C12.8476 3.30955 12.9254 3.12201 13.0638 2.98369C13.2021 2.84537 13.3896 2.76756 13.5852 2.76732C13.5853 2.76732 13.5853 2.76732 13.5853 2.76732H16.4928C16.4928 2.76732 16.4929 2.76732 16.4929 2.76732C16.6885 2.76756 16.876 2.84537 17.0144 2.98369C17.1527 3.12204 17.2305 3.30961 17.2307 3.50526V6.41271Z" fill="black" stroke="#1B1D1F" stroke-width="0.2"/>
<path d="M6.411 10.818H6.41087L3.5032 10.818L3.50306 10.818C2.76845 10.819 2.06421 11.1112 1.54476 11.6307C1.02531 12.1501 0.733038 12.8544 0.732031 13.589V13.5891L0.732031 16.4968L0.732031 16.4969C0.733038 17.2316 1.02531 17.9358 1.54476 18.4552C2.06421 18.9747 2.76845 19.267 3.50306 19.268H3.5032H6.41087H6.411C7.14562 19.267 7.84985 18.9747 8.3693 18.4552C8.88875 17.9358 9.18102 17.2316 9.18203 16.4969V16.4968V13.5891V13.589C9.18102 12.8544 8.88875 12.1501 8.3693 11.6307C7.84985 11.1112 7.14562 10.819 6.411 10.818ZM7.1487 16.4967C7.14848 16.6923 7.07067 16.8799 6.93232 17.0183C6.79398 17.1566 6.60641 17.2344 6.41076 17.2346H3.50331C3.30766 17.2344 3.12008 17.1566 2.98174 17.0183C2.84342 16.8799 2.76561 16.6924 2.76536 16.4968C2.76536 16.4968 2.76536 16.4967 2.76536 16.4967V13.5892C2.76536 13.5892 2.76536 13.5892 2.76536 13.5891C2.76561 13.3935 2.84342 13.206 2.98174 13.0677C3.12006 12.9294 3.30759 12.8515 3.5032 12.8513C3.50323 12.8513 3.50327 12.8513 3.50331 12.8513H6.41076C6.41079 12.8513 6.41082 12.8513 6.41086 12.8513C6.60647 12.8515 6.794 12.9294 6.93232 13.0677C7.07067 13.206 7.14848 13.3936 7.1487 13.5892V16.4967Z" fill="black" stroke="#1B1D1F" stroke-width="0.2"/>
<path d="M16.493 10.818H16.4929L13.5852 10.818L13.5851 10.818C12.8505 10.819 12.1462 11.1112 11.6268 11.6307C11.1073 12.1501 10.8151 12.8544 10.8141 13.589V13.5891L10.8141 16.4968L10.8141 16.4969C10.8151 17.2316 11.1073 17.9358 11.6268 18.4552C12.1462 18.9747 12.8505 19.267 13.5851 19.268H13.5852H16.4929H16.493C17.2276 19.267 17.9319 18.9747 18.4513 18.4552C18.9708 17.9358 19.2631 17.2316 19.2641 16.4969V16.4968V13.5891V13.589C19.2631 12.8544 18.9708 12.1501 18.4513 11.6307C17.9319 11.1112 17.2276 10.819 16.493 10.818ZM17.2307 16.4967C17.2305 16.6923 17.1527 16.8799 17.0144 17.0183C16.876 17.1566 16.6884 17.2344 16.4928 17.2346H13.5853C13.3897 17.2344 13.2021 17.1566 13.0638 17.0183C12.9255 16.8799 12.8476 16.6924 12.8474 16.4968C12.8474 16.4968 12.8474 16.4967 12.8474 16.4967V13.5892C12.8474 13.5892 12.8474 13.5892 12.8474 13.5891C12.8476 13.3935 12.9254 13.206 13.0638 13.0677C13.2021 12.9294 13.3896 12.8515 13.5852 12.8513C13.5853 12.8513 13.5853 12.8513 13.5853 12.8513H16.4928C16.4928 12.8513 16.4929 12.8513 16.4929 12.8513C16.6885 12.8515 16.876 12.9294 17.0144 13.0677C17.1527 13.206 17.2305 13.3936 17.2307 13.5892V16.4967Z" fill="black" stroke="#1B1D1F" stroke-width="0.2"/>
</svg>
