<svg width="24" height="24" viewBox="0 0 24 24" fill="none" xmlns="http://www.w3.org/2000/svg">
<path d="M20.73 4.12769C18.655 2.05265 15.2901 2.05265 13.2151 4.12769L2.88252 14.4602C1.32562 16.0171 1.32562 18.5398 2.88252 20.0968C4.16578 21.38 6.10132 21.5872 7.61441 20.7543C7.77247 20.7464 7.9279 20.6866 8.04882 20.567L18.3813 10.2345C19.4188 9.19702 19.4188 7.51521 18.3813 6.47772C17.3439 5.44023 15.662 5.44023 14.6246 6.47772L6.17039 14.9318C5.91133 15.1909 5.91133 15.612 6.17039 15.871C6.42946 16.1301 6.85057 16.1301 7.10958 15.871L15.5637 7.4169C16.0832 6.89749 16.924 6.89749 17.4422 7.4169C17.9616 7.93632 17.9616 8.7772 17.4422 9.29533L7.57855 19.1589C6.54106 20.1964 4.85925 20.1964 3.82176 19.1589C2.78428 18.1214 2.78428 16.4396 3.82176 15.4021L14.1543 5.06687C15.7112 3.50996 18.2339 3.50996 19.7908 5.06687C21.3478 6.62378 21.3478 9.14646 19.7908 10.7034L10.3975 20.0968C10.1384 20.3558 10.1384 20.7769 10.3975 21.0359C10.6566 21.295 11.0777 21.295 11.3367 21.0359L20.73 11.6426C22.8051 9.56763 22.8051 6.20272 20.73 4.12769Z" fill="#F7F7F7"/>
</svg>
