<svg width="190" height="184" viewBox="0 0 190 184" fill="none" xmlns="http://www.w3.org/2000/svg">
<g filter="url(#filter0_bd_2800_127474)">
<path fill-rule="evenodd" clip-rule="evenodd" d="M18.8427 83.3331C18.6711 85.3147 19.3125 87.2809 20.6195 88.7801L90.9581 169.459C93.6173 172.509 98.2456 172.826 101.296 170.166L173.827 106.931C176.877 104.271 177.194 99.6432 174.535 96.5931L104.209 15.929C102.894 14.4213 101.021 13.5166 99.0226 13.4247L32.2192 10.3534C28.292 10.1728 24.9223 13.1238 24.5831 17.0405L18.8427 83.3331ZM39.8405 33.462C42.4528 34.3573 45.2962 32.9653 46.1914 30.353C47.0867 27.7408 45.6947 24.8974 43.0825 24.0021C40.4702 23.1069 37.6268 24.4988 36.7315 27.1111C35.8363 29.7234 37.2282 32.5668 39.8405 33.462Z" fill="white" fill-opacity="0.6"/>
<path d="M85.999 107.671L81.0396 101.983L99.7615 85.6602C100.056 85.4034 100.407 85.0812 100.814 84.6937C101.224 84.2717 101.632 83.7543 102.037 83.1416C103.196 81.3861 103.634 79.6591 103.353 77.9607C103.055 76.2439 102.256 74.64 100.956 73.1489C100.169 72.2468 99.2448 71.4651 98.1822 70.8039C97.122 70.1081 95.9648 69.6913 94.7106 69.5535C93.4748 69.3997 92.1935 69.6581 90.8666 70.3289C90.2756 70.6174 89.7236 70.969 89.2105 71.384C88.7158 71.7829 88.3488 72.0866 88.1095 72.2953L77.6992 81.3713L72.2584 75.1307L82.9448 65.8139C83.1473 65.6373 83.5511 65.3015 84.1562 64.8063C84.7798 64.2951 85.5079 63.7737 86.3405 63.2421C88.9282 61.6018 91.4812 60.7206 93.9995 60.5988C96.5362 60.4609 98.95 60.981 101.241 62.1592C103.534 63.3028 105.619 64.9516 107.497 67.1055C110.37 70.4007 111.908 73.8555 112.11 77.4698C112.313 81.0842 110.945 84.6257 108.008 88.0943C107.351 88.8283 106.736 89.4785 106.16 90.045C105.587 90.577 105.2 90.9313 104.997 91.1078L85.999 107.671ZM93.8954 116.728L89.3453 111.509L112.9 90.9738L117.45 96.1927L93.8954 116.728ZM102.563 118.698L67.8954 78.9345L74.5503 73.1325L109.218 112.896L102.563 118.698Z" fill="#EDB021"/>
</g>
<defs>
<filter id="filter0_bd_2800_127474" x="14.8164" y="5.34546" width="165.523" height="169.625" filterUnits="userSpaceOnUse" color-interpolation-filters="sRGB">
<feFlood flood-opacity="0" result="BackgroundImageFix"/>
<feGaussianBlur in="BackgroundImageFix" stdDeviation="1"/>
<feComposite in2="SourceAlpha" operator="in" result="effect1_backgroundBlur_2800_127474"/>
<feColorMatrix in="SourceAlpha" type="matrix" values="0 0 0 0 0 0 0 0 0 0 0 0 0 0 0 0 0 0 127 0" result="hardAlpha"/>
<feOffset dy="-1"/>
<feGaussianBlur stdDeviation="2"/>
<feComposite in2="hardAlpha" operator="out"/>
<feColorMatrix type="matrix" values="0 0 0 0 0 0 0 0 0 0 0 0 0 0 0 0 0 0 0.15 0"/>
<feBlend mode="normal" in2="effect1_backgroundBlur_2800_127474" result="effect2_dropShadow_2800_127474"/>
<feBlend mode="normal" in="SourceGraphic" in2="effect2_dropShadow_2800_127474" result="shape"/>
</filter>
</defs>
</svg>
