<svg width="43" height="28" viewBox="0 0 43 28" fill="none" xmlns="http://www.w3.org/2000/svg">
<g clip-path="url(#clip0_4771_5792)">
<path d="M3.375 4.5C3.375 4.5 5.82756 4.5 8.34788 4.5C8.48546 4.5 8.61814 4.55438 8.71308 4.65397C11.1833 7.24539 11.8814 11.0101 15.696 12.2817C15.9079 12.3523 16.1242 12.4244 16.3444 12.4978M37.0955 19.4148C37.0955 19.4148 33.8771 18.342 29.6755 16.9415M16.3444 12.4978L14.0239 6.503C13.8923 6.16303 14.1431 5.79694 14.5077 5.79694H37.6366C37.7054 5.79694 37.7713 5.82427 37.82 5.87292L38.2253 6.2782C38.32 6.37294 38.327 6.52426 38.2414 6.62734L29.6755 16.9415M16.3444 12.4978C20.2788 13.8093 25.4697 15.5396 29.6755 16.9415" stroke="white" stroke-width="1.4" stroke-linecap="round"/>
<path d="M33.6503 21.4314C34.1655 22.0922 34.8802 22.5691 35.6881 22.7911C36.4961 23.0131 37.3541 22.9684 38.1346 22.6635C38.9151 22.3586 39.5763 21.81 40.0199 21.0991C40.4634 20.3883 40.6657 19.5532 40.5965 18.7181C40.5274 17.8831 40.1905 17.0927 39.636 16.4645C39.0815 15.8363 38.339 15.4039 37.519 15.2317C36.699 15.0594 35.8453 15.1564 35.0849 15.5083C34.3244 15.8602 33.6979 16.4482 33.2986 17.1848" stroke="white" stroke-width="1.4" stroke-linecap="round"/>
<path d="M17.7695 16.1725C17.7695 16.1725 19.4942 19.8034 20.4376 21.7494C20.7178 22.3275 21.241 22.7469 21.8642 22.9027V22.9027C22.8642 23.1527 23.9221 22.8597 24.6509 22.1308L27.3669 19.4148" stroke="white" stroke-width="1.4" stroke-linecap="round"/>
</g>
<defs>
<clipPath id="clip0_4771_5792">
<rect width="39" height="21" fill="white" transform="translate(2.5 3)"/>
</clipPath>
</defs>
</svg>
