<svg width="43" height="28" viewBox="0 0 43 28" fill="none" xmlns="http://www.w3.org/2000/svg">
<g clip-path="url(#clip0_4510_31996)">
<g clip-path="url(#clip1_4510_31996)">
<path d="M1.375 7C1.375 7 3.82756 7 6.34788 7C6.48546 7 6.61814 7.05438 6.71308 7.15397C9.18333 9.74539 9.88139 13.5101 13.696 14.7817C13.9079 14.8523 14.1242 14.9244 14.3444 14.9978M35.0955 21.9148C35.0955 21.9148 31.8771 20.842 27.6755 19.4415M14.3444 14.9978L12.0239 9.003C11.8923 8.66303 12.1431 8.29694 12.5077 8.29694H35.6366C35.7054 8.29694 35.7713 8.32427 35.82 8.37292L36.2253 8.7782C36.32 8.87294 36.327 9.02426 36.2414 9.12734L27.6755 19.4415M14.3444 14.9978C18.2788 16.3093 23.4697 18.0396 27.6755 19.4415" stroke="#EDB021" stroke-width="1.4" stroke-linecap="round"/>
<path d="M31.6503 23.9323C32.1655 24.5931 32.8802 25.07 33.6881 25.292C34.4961 25.514 35.3541 25.4692 36.1346 25.1644C36.9151 24.8595 37.5763 24.3108 38.0199 23.6C38.4634 22.8891 38.6657 22.054 38.5965 21.219C38.5274 20.384 38.1905 19.5936 37.636 18.9654C37.0815 18.3372 36.339 17.9048 35.519 17.7325C34.699 17.5602 33.8453 17.6572 33.0849 18.0092C32.3244 18.3611 31.6979 18.9491 31.2986 19.6857" stroke="#EDB021" stroke-width="1.4" stroke-linecap="round"/>
<path d="M15.7734 18.6719C15.7734 18.6719 17.4981 22.3027 18.4415 24.2488C18.7217 24.8269 19.2449 25.2463 19.8682 25.4021V25.4021C20.8682 25.6521 21.926 25.3591 22.6549 24.6302L25.3708 21.9142" stroke="#EDB021" stroke-width="1.4" stroke-linecap="round"/>
</g>
</g>
<defs>
<clipPath id="clip0_4510_31996">
<rect width="42" height="28" fill="white" transform="translate(0.5)"/>
</clipPath>
<clipPath id="clip1_4510_31996">
<rect width="39" height="21" fill="white" transform="translate(0.5 5.5)"/>
</clipPath>
</defs>
</svg>
