<svg width="25" height="24" viewBox="0 0 25 24" fill="none" xmlns="http://www.w3.org/2000/svg">
<path fill-rule="evenodd" clip-rule="evenodd" d="M20.0328 19.7393C18.0872 21.6334 15.4298 22.8 12.5 22.8C9.41919 22.8 6.63967 21.51 4.67211 19.4407L4.67994 19.3974C4.82473 18.861 5.14388 18.6 5.61716 18.4307C6.0152 18.2883 6.46486 18.2282 6.98155 18.1592C7.16184 18.1351 7.3503 18.11 7.54757 18.0798C8.25526 17.9717 9.06265 17.7967 9.68373 17.266C10.1846 16.8381 10.5118 16.2285 10.6358 15.3879C11.1421 15.6914 11.7457 15.8571 12.4669 15.8571C13.0811 15.8571 13.5899 15.7169 14.0146 15.4667C14.1422 16.2718 14.4523 16.8713 14.9163 17.3093C15.5179 17.8772 16.305 18.0996 17.015 18.237C17.251 18.2827 17.4982 18.3222 17.7329 18.3597L17.7329 18.3597L17.7331 18.3597C17.8489 18.3782 17.9617 18.3962 18.0686 18.4142C18.4057 18.4711 18.7078 18.5316 18.9746 18.617C19.4832 18.7799 19.8048 19.0118 19.9679 19.4298L20.0328 19.7393ZM20.8404 18.8617C20.5023 18.1811 19.9084 17.8361 19.2883 17.6375C18.9488 17.5287 18.5874 17.4586 18.2396 17.4C18.1132 17.3786 17.9908 17.3591 17.8705 17.34L17.8705 17.34L17.8702 17.3399C17.6468 17.3043 17.4309 17.2699 17.2105 17.2272C16.5374 17.0969 15.9997 16.9175 15.6223 16.5613C15.2653 16.2242 14.9775 15.6549 14.9775 14.5714C14.9775 14.5609 14.9772 14.5504 14.9766 14.54C15.7647 13.3859 16.072 11.6215 16.324 9.85714C16.7526 6.85714 15.3072 4.28571 12.4669 4.28571C9.6266 4.28571 7.75261 6.42857 8.18118 9.85714C8.4208 11.774 8.84429 13.423 9.66754 14.5044C9.66469 14.5264 9.66322 14.5487 9.66322 14.5714C9.66322 15.6518 9.36833 16.1826 9.01557 16.484C8.63348 16.8105 8.08706 16.9569 7.39222 17.063C7.2466 17.0853 7.09164 17.1058 6.93133 17.1271L6.93118 17.1271L6.93105 17.1271C6.38696 17.1993 5.78135 17.2795 5.27073 17.4622C4.72185 17.6585 4.22861 17.9873 3.91569 18.5545C2.52574 16.7369 1.7 14.4649 1.7 12C1.7 6.03532 6.53532 1.2 12.5 1.2C18.4647 1.2 23.3 6.03532 23.3 12C23.3 14.6058 22.3771 16.996 20.8404 18.8617ZM21.1094 20.3593C23.2079 18.1984 24.5 15.2501 24.5 12C24.5 5.37258 19.1274 0 12.5 0C5.87258 0 0.5 5.37258 0.5 12C0.5 18.6274 5.87258 24 12.5 24C15.75 24 18.6983 22.708 20.8591 20.6096C20.9713 20.5577 21.059 20.4678 21.1094 20.3593ZM15.1669 10.6267C14.98 11.769 14.7522 12.7684 14.3777 13.5266C14.1506 13.9863 13.8949 14.3017 13.6114 14.5034C13.3399 14.6965 12.9834 14.8286 12.4669 14.8286C11.4382 14.8286 10.789 14.4013 10.2944 13.6017C9.75241 12.7257 9.41176 11.4091 9.20181 9.72956C9.11246 9.01479 9.1398 8.3929 9.25256 7.86207C9.52322 7.02773 10.4375 6.68698 12.8345 7.71429C13.7523 8.17318 14.3654 8.19531 14.755 8.20937C14.9682 8.21706 15.1144 8.22234 15.2069 8.29552C15.4089 8.45523 15.3551 8.93841 15.1837 10.4762L15.1669 10.6267Z" fill="#EDB021"/>
</svg>
