<svg width="68" height="78" viewBox="0 0 68 78" fill="none" xmlns="http://www.w3.org/2000/svg">
<path d="M7.64224 47.4463L10.2052 14.1413C10.3313 12.5034 11.5434 11.1551 13.1587 10.8562L35.7661 6.67205C36.5789 6.52162 37.4176 6.60322 38.1861 6.90748L59.0698 15.1754C60.5877 15.7763 61.5163 17.318 61.3379 18.9407L57.6791 52.2136C57.3042 55.6225 55.2521 58.6191 52.2093 60.201L33.9797 69.678C32.0997 70.6554 29.8232 70.4512 28.1471 69.1549L11.5978 56.3556C8.86368 54.241 7.37703 50.8926 7.64224 47.4463Z" stroke="#EDB021" stroke-width="5"/>
<path d="M22.3855 35.0265L28.7982 42.7881C29.4363 43.5605 30.5801 43.6683 31.3514 43.0289L48.8014 28.5603" stroke="#EDB021" stroke-width="5" stroke-linecap="round"/>
</svg>
