<svg width="94" height="115" viewBox="0 0 94 115" fill="none" xmlns="http://www.w3.org/2000/svg">
<path d="M5.03124 76.1592L4.0794 20.8587C4.03258 18.139 5.82119 15.7281 8.43756 14.9842L45.6864 4.3932C46.59 4.13627 47.5477 4.13911 48.4498 4.4014L84.7916 14.968C87.3872 15.7227 89.1576 18.1197 89.1157 20.8225L88.2561 76.2403C88.168 81.918 85.251 87.1768 80.481 90.2574L51.9032 108.714C48.956 110.617 45.1715 110.634 42.2071 108.758L12.9367 90.231C8.10088 87.1702 5.12973 81.8815 5.03124 76.1592Z" stroke="#EDB021" stroke-width="8"/>
<path d="M27.4102 53.3895L39.1876 65.1875C40.3596 66.3616 42.2619 66.3616 43.4339 65.1875L69.9507 38.6243" stroke="#EDB021" stroke-width="8" stroke-linecap="round"/>
</svg>
