<svg width="230" height="273" viewBox="0 0 230 273" fill="none" xmlns="http://www.w3.org/2000/svg">
<path d="M27.5384 137.879L65.9644 17.0077C66.7885 14.4155 69.2533 12.7019 71.9703 12.8324L158.6 16.9935C163.479 17.2278 168.194 18.8321 172.204 21.6225L241.764 70.0301C243.983 71.5741 244.895 74.411 243.993 76.9589L201.56 196.714C197.209 208.993 187.015 218.289 174.388 221.492L104.946 239.106C95.8779 241.406 86.2995 238.227 80.406 230.961L34.4165 174.262C26.1456 164.065 23.5606 150.391 27.5384 137.879Z" stroke="#EDB021" stroke-width="11"/>
<path d="M90.1453 106.791L106.738 140.322C108.209 143.296 111.815 144.511 114.786 143.034L189.52 105.89" stroke="#EDB021" stroke-width="11" stroke-linecap="round"/>
</svg>
