<svg width="23" height="18" viewBox="0 0 23 18" fill="none" xmlns="http://www.w3.org/2000/svg">
<path d="M6.07554 18C2.58462 18 0.945312 16.4318 0.945312 13.0105V4.98941C0.945312 1.56822 2.58462 0 6.07554 0H17.8678C21.3594 0 22.9987 1.56822 22.9987 4.98941V13.0105C22.9987 16.4318 21.3594 18 17.8678 18H6.07554ZM16.1754 14.2459C17.7892 14.2459 18.3448 13.6806 18.3448 12.1375V5.8625C18.3448 4.3194 17.7892 3.75409 16.1754 3.75409H7.76793C6.18102 3.75409 5.59919 4.3194 5.59919 5.8625V12.1375C5.59919 13.6806 6.18102 14.2459 7.76793 14.2459H16.1754Z" fill="#EDB021"/>
</svg>
