<svg width="23" height="18" viewBox="0 0 23 18" fill="none" xmlns="http://www.w3.org/2000/svg">
<path d="M0.648438 4.98941C0.648438 1.56822 2.28774 0 5.77867 0H17.5978C21.088 0 22.7273 1.56822 22.7273 4.98941V6.1975H18.0479V5.75991C18.0479 4.21681 17.4923 3.6515 15.8785 3.6515H7.49724C5.88414 3.6515 5.32852 4.21681 5.32852 5.75991V12.3427C5.32852 13.8858 5.88414 14.4511 7.49724 14.4511H16.0377C17.6508 14.4511 18.2058 13.8858 18.2058 12.3427V11.3146L11.9126 7.97088H22.7273V13.0105C22.7273 16.4318 21.088 18 17.5978 18H5.77867C2.28774 18 0.648438 16.4318 0.648438 13.0105V4.98941Z" fill="#EDB021"/>
</svg>
