<svg width="20" height="20" viewBox="0 0 20 20" fill="none" xmlns="http://www.w3.org/2000/svg">
<path d="M17.7914 14.9516C17.7914 15.2325 17.729 15.5212 17.5964 15.8022C17.4637 16.0831 17.292 16.3485 17.0657 16.5982C16.6833 17.0196 16.2619 17.3239 15.7858 17.519C15.3176 17.7141 14.8104 17.8156 14.2641 17.8156C13.4681 17.8156 12.6175 17.6283 11.72 17.2459C10.8226 16.8635 9.9251 16.3485 9.03546 15.7007C8.13801 15.0452 7.28738 14.3194 6.47577 13.5156C5.67197 12.704 4.94621 11.8534 4.29848 10.9638C3.65856 10.0741 3.1435 9.18446 2.76891 8.30262C2.39433 7.41298 2.20703 6.56235 2.20703 5.75074C2.20703 5.22007 2.30068 4.71282 2.48797 4.24459C2.67527 3.76855 2.97181 3.33153 3.38542 2.94133C3.88487 2.44969 4.43115 2.20776 5.00864 2.20776C5.22715 2.20776 5.44566 2.25459 5.64075 2.34823C5.84366 2.44188 6.02315 2.58235 6.16362 2.78525L7.97412 5.33713C8.11459 5.53223 8.21605 5.71172 8.28628 5.88341C8.35652 6.04729 8.39554 6.21117 8.39554 6.35945C8.39554 6.54674 8.34091 6.73403 8.23165 6.91352C8.1302 7.09301 7.98193 7.28031 7.79463 7.4676L7.20154 8.08411C7.11569 8.16995 7.07667 8.27141 7.07667 8.39627C7.07667 8.4587 7.08448 8.51333 7.10009 8.57576C7.1235 8.63819 7.14691 8.68501 7.16252 8.73184C7.30299 8.98937 7.54491 9.32493 7.88828 9.73074C8.23946 10.1365 8.61404 10.5501 9.01985 10.9638C9.44126 11.3774 9.84706 11.7598 10.2607 12.1109C10.6665 12.4543 11.002 12.6884 11.2674 12.8289C11.3064 12.8445 11.3532 12.8679 11.4078 12.8913C11.4703 12.9147 11.5327 12.9225 11.6029 12.9225C11.7356 12.9225 11.8371 12.8757 11.9229 12.7899L12.516 12.2046C12.7111 12.0095 12.8984 11.8612 13.0779 11.7676C13.2574 11.6583 13.4369 11.6037 13.632 11.6037C13.7802 11.6037 13.9363 11.6349 14.108 11.7051C14.2797 11.7754 14.4592 11.8768 14.6543 12.0095L17.2374 13.8434C17.4403 13.9839 17.5807 14.1478 17.6666 14.3429C17.7446 14.5379 17.7914 14.733 17.7914 14.9516Z" stroke="#EDB021" stroke-width="1.2" stroke-miterlimit="10"/>
</svg>
