<svg width="29" height="28" viewBox="0 0 29 28" fill="none" xmlns="http://www.w3.org/2000/svg">
<path d="M3.5 12.0645C4.61389 12.8204 6.35229 14 6.35229 14L6.43904 9.74194L4.96952 10.9032C4.96952 10.9032 4.07388 11.611 3.5 12.0645Z" fill="white"/>
<path d="M22.4677 13.6989L24.7903 12.0645L23.6923 11.0968L22.5942 10.129L22.4677 13.6989Z" fill="white"/>
<path d="M3.5 12.0645C3.5 16.3762 3.5 22.6032 3.5 25.0041C3.5 25.5564 3.94772 26 4.5 26H23.7903C24.3426 26 24.7903 25.5523 24.7903 25V12.0645M3.5 12.0645C4.61389 12.8204 6.35229 14 6.35229 14M3.5 12.0645C4.07388 11.611 4.96952 10.9032 4.96952 10.9032L6.43904 9.74194M24.7903 12.0645L22.4677 13.6989M24.7903 12.0645L23.6923 11.0968L22.5942 10.129M6.35229 14L13.7669 19.0313C14.111 19.2648 14.5638 19.261 14.9039 19.0217L22.4677 13.6989M6.35229 14L6.43904 9.74194M22.4677 13.6989L22.5942 10.129M6.43904 9.74194L6.57584 3.02738C6.58731 2.46455 7.0609 2.0221 7.6232 2.04888L21.868 2.7272C22.415 2.75325 22.8392 3.21429 22.8199 3.76148L22.5942 10.129" stroke="white" stroke-width="1.2" stroke-linecap="round"/>
<rect x="8.54297" y="5.0968" width="1.54839" height="1.54839" rx="0.2" transform="rotate(1.65107 8.54297 5.0968)" fill="white"/>
<path d="M11.6174 5.95049C11.6237 5.72967 11.8079 5.55582 12.0287 5.56218L18.9678 5.7622C19.1886 5.76856 19.3625 5.95274 19.3561 6.17356C19.3497 6.39438 19.1656 6.56823 18.9447 6.56187L12.0057 6.36185C11.7849 6.35549 11.611 6.17132 11.6174 5.95049Z" fill="white"/>
<rect x="8.54297" y="8.1181" width="1.54839" height="1.54839" rx="0.2" transform="rotate(1.65107 8.54297 8.1181)" fill="white"/>
<path d="M11.6174 8.97167C11.6237 8.75085 11.8079 8.577 12.0287 8.58336L18.9678 8.78338C19.1886 8.78974 19.3625 8.97392 19.3561 9.19474C19.3497 9.41556 19.1656 9.58941 18.9447 9.58305L12.0057 9.38303C11.7849 9.37667 11.611 9.19249 11.6174 8.97167Z" fill="white"/>
<rect x="8.54297" y="11.1394" width="1.54839" height="1.54839" rx="0.2" transform="rotate(1.65107 8.54297 11.1394)" fill="white"/>
<path d="M11.6174 11.9931C11.6237 11.7723 11.8079 11.5984 12.0287 11.6048L18.9678 11.8048C19.1886 11.8112 19.3625 11.9953 19.3561 12.2162C19.3497 12.437 19.1656 12.6108 18.9447 12.6045L12.0057 12.4045C11.7849 12.3981 11.611 12.2139 11.6174 11.9931Z" fill="white"/>
</svg>
