<svg width="121" height="19" viewBox="0 0 121 19" fill="none" xmlns="http://www.w3.org/2000/svg">
<g clip-path="url(#clip0_4576_95468)">
<path d="M16.6575 3.6582C17.0992 4.23653 17.4731 4.86483 17.7717 5.53049L9.30161 11.8536L5.76172 9.60638V6.90291L9.30161 9.15009L16.6575 3.6582Z" fill="white" fill-opacity="0.3"/>
<path d="M2.14819 9.41731C2.14819 9.296 2.15112 9.17549 2.15696 9.05568L0.0116835 8.94922C0.00438172 9.1045 2.59246e-06 9.26128 2.59246e-06 9.4195C-0.000910162 10.6558 0.239208 11.88 0.706588 13.022C1.17397 14.1641 1.8594 15.2014 2.72358 16.0746L4.24528 14.5343C3.58006 13.8634 3.05235 13.0659 2.69246 12.1877C2.33257 11.3096 2.14761 10.3681 2.14819 9.41731Z" fill="white" fill-opacity="0.3"/>
<path d="M9.29796 2.17595C9.41769 2.17595 9.53668 2.18039 9.65497 2.1863L9.76231 0.0130514C9.60853 0.00565692 9.45371 0.00196011 9.29796 0.00196011C8.07661 0.000451807 6.86707 0.243268 5.7387 0.716465C4.61031 1.18966 3.58535 1.88392 2.72266 2.75938L4.24435 4.3004C4.90691 3.62652 5.69447 3.09191 6.56175 2.72732C7.42903 2.36274 8.35889 2.17535 9.29796 2.17595Z" fill="white" fill-opacity="0.3"/>
<path d="M9.30104 16.6569C9.18131 16.6569 9.06227 16.6569 8.94328 16.6473L8.83594 18.8198C8.99024 18.8277 9.14529 18.8316 9.30104 18.8316C10.5219 18.8329 11.7308 18.5899 12.8586 18.1166C13.9864 17.6433 15.0107 16.9489 15.8727 16.0735L14.3539 14.5332C13.6913 15.2067 12.9038 15.741 12.0367 16.1055C11.1696 16.4699 10.2399 16.6573 9.30104 16.6569Z" fill="white" fill-opacity="0.3"/>
<path d="M13.3304 3.43846L15.1384 2.08896C13.4859 0.733889 11.4232 -0.00376154 9.29688 1.44248e-05V2.17474C10.7367 2.17293 12.1431 2.61358 13.3304 3.43846Z" fill="white" fill-opacity="0.3"/>
<path d="M18.5968 9.4179C18.5979 8.85216 18.5491 8.2874 18.4507 7.73047L16.4493 9.22416C16.4493 9.28853 16.4493 9.35284 16.4493 9.4179C16.4499 10.4297 16.2404 11.4303 15.8347 12.3548C15.4288 13.2794 14.8357 14.1073 14.0938 14.7848L15.5373 16.4006C16.5019 15.5187 17.2728 14.4414 17.7998 13.2385C18.3269 12.0356 18.5984 10.7339 18.5968 9.4179Z" fill="white" fill-opacity="0.3"/>
<path d="M9.30136 16.657C8.30219 16.6573 7.31408 16.4451 6.40099 16.0342C5.48795 15.6233 4.67028 15.0227 4.00096 14.2715L2.40625 15.7326C3.27696 16.7096 4.34072 17.4904 5.52856 18.0243C6.7164 18.5581 8.00176 18.8332 9.30136 18.8317V16.657Z" fill="white" fill-opacity="0.3"/>
<path d="M4.50376 4.0493L3.06093 2.43359C2.09604 3.3153 1.32494 4.39254 0.797621 5.59546C0.270309 6.79837 -0.00143764 8.1001 5.71962e-06 9.41623H2.1482C2.14776 8.4045 2.35722 7.40389 2.763 6.47934C3.16879 5.55482 3.76185 4.72691 4.50376 4.0493Z" fill="white" fill-opacity="0.3"/>
<path d="M53.6617 5.38441L56.3223 3.42188H47.418V15.215H56.3223V13.2525H49.9587V10.2316H55.3871V8.26912H49.9587V5.38441H53.6617Z" fill="white" fill-opacity="0.3"/>
<path d="M41.4275 8.01695H38.3361V5.38451H43.2699L45.9288 3.41602H35.7969V15.2091H41.1005C44.074 15.2091 45.7805 13.8598 45.7805 11.5066C45.7805 9.25529 44.2348 8.01695 41.4275 8.01695ZM40.9862 13.246H38.3361V9.97827H40.9862C42.5944 9.97827 43.3485 10.5259 43.3485 11.6122C43.3485 12.6984 42.5461 13.246 40.9862 13.246Z" fill="white" fill-opacity="0.3"/>
<path d="M62.8664 3.42188H58.0195V15.215H60.56V11.8742H62.8664C65.9589 11.8742 67.8718 10.245 67.8718 7.64173C67.8718 5.03858 65.9589 3.42188 62.8664 3.42188ZM62.8129 9.91016H60.56V5.38591H62.8129C64.4394 5.38591 65.3371 6.18979 65.3371 7.64893C65.3371 9.10807 64.4394 9.91016 62.8129 9.91016Z" fill="white" fill-opacity="0.3"/>
<path d="M31.9817 12.4308C31.3255 12.7866 30.5902 12.9708 29.8439 12.9664C27.6104 12.9664 25.9901 11.3699 25.9901 9.17151C25.9901 6.97304 27.6104 5.37306 29.8439 5.37306C30.6494 5.35936 31.4382 5.6039 32.095 6.071L33.872 4.76063L33.7518 4.67514C32.7152 3.76261 31.3301 3.2793 29.7447 3.2793C28.025 3.2793 26.4657 3.85857 25.3524 4.91243C24.7895 5.45505 24.3443 6.10802 24.0445 6.83059C23.7448 7.55317 23.5969 8.32981 23.6102 9.11215C23.5983 9.90243 23.7455 10.687 24.043 11.4191C24.3406 12.1512 24.7823 12.8157 25.342 13.373C26.4605 14.4687 28.0163 15.0724 29.7238 15.0724C31.5078 15.0724 33.0672 14.4495 34.123 13.3154L32.5323 12.1289L31.9817 12.4308Z" fill="white" fill-opacity="0.3"/>
<path d="M77.9436 8.01695H74.8535V5.38451H81.4941V3.41602H72.3125V15.2091H77.6094C80.5826 15.2091 82.2892 13.8598 82.2892 11.5066C82.2962 9.25529 80.7508 8.01695 77.9436 8.01695ZM77.5023 13.246H74.8535V9.97827H77.5023C79.1104 9.97827 79.8641 10.5259 79.8641 11.6122C79.8641 12.6984 79.0689 13.246 77.5023 13.246Z" fill="white" fill-opacity="0.3"/>
<path d="M111.173 15.1916H108.598V3.39844H111.173V8.35162H112.575L116.361 3.39844H119.28L114.789 9.00856L120.003 15.1916H116.586L112.754 10.5534H111.173V15.1916Z" fill="white" fill-opacity="0.3"/>
<path d="M91.6482 12.9503H86.1997L85.2761 15.2404H82.5352L87.6454 3.44727H90.3857L95.413 15.2404H92.5718L91.6482 12.9503ZM90.7948 10.8135L88.9401 6.23327L87.075 10.8135H90.7948Z" fill="white" fill-opacity="0.3"/>
<path d="M98.8783 3.44739V8.37198H104.208V3.44739H106.864V15.2405H104.208V10.5936H98.8783V15.2405H96.2227V3.44739H98.8783Z" fill="white" fill-opacity="0.3"/>
</g>
<defs>
<clipPath id="clip0_4576_95468">
<rect width="121" height="19" fill="white"/>
</clipPath>
</defs>
</svg>
