<svg width="50" height="50" viewBox="0 0 50 50" fill="none" xmlns="http://www.w3.org/2000/svg">
<rect width="50" height="50" rx="25" fill="white" fill-opacity="0.06"/>
<g opacity="0.5">
<path d="M31.1257 36.6802C30.9304 36.6802 30.7365 36.6224 30.5701 36.5096L24.2841 32.2457L20.9126 34.6716C20.6482 34.8617 20.3074 34.9096 20.0004 34.7999C19.6937 34.6898 19.4609 34.4358 19.3777 34.1209L17.6849 27.7054L11.6361 25.3926C11.2553 25.2469 11.0028 24.8826 11 24.4749C10.9973 24.0672 11.2448 23.6995 11.6237 23.5486L34.6233 14.3969C34.7277 14.3526 34.8381 14.327 34.9495 14.3202C34.9893 14.3178 35.0293 14.3178 35.069 14.32C35.2997 14.3337 35.5262 14.4277 35.703 14.6011C35.7213 14.619 35.7388 14.6374 35.7553 14.6565C35.9017 14.8238 35.9822 15.0278 35.9974 15.2356C36.0011 15.2878 36.0008 15.3408 35.9962 15.3937C35.993 15.4314 35.9876 15.469 35.98 15.5063L32.0977 35.8759C32.0353 36.2031 31.8126 36.477 31.5049 36.6046C31.3829 36.6553 31.254 36.6802 31.1257 36.6802ZM24.836 30.2285L30.4354 34.0265L33.4561 18.1768L22.546 28.6751L24.8096 30.2107C24.8187 30.2164 24.8275 30.2224 24.836 30.2285ZM20.1748 29.3839L20.9245 32.2247L22.5398 31.0624L20.4247 29.6276C20.3264 29.5611 20.2422 29.4783 20.1748 29.3839ZM14.7124 24.4497L18.8658 26.0377C19.1633 26.1514 19.3879 26.4016 19.4692 26.7095L19.9959 28.7057C20.02 28.4755 20.1244 28.2588 20.294 28.0956L30.6898 18.0923L14.7124 24.4497Z" fill="white"/>
</g>
</svg>
