<svg width="16" height="16" viewBox="0 0 16 16" fill="none" xmlns="http://www.w3.org/2000/svg">
<path d="M0 16C0.222599 15.3373 0.432293 14.7162 0.641988 14.0951C0.851682 13.4804 1.03879 12.856 1.27752 12.2509C1.40011 11.9436 1.3614 11.7131 1.20655 11.4249C0.36132 9.86897 0.109686 8.20094 0.403258 6.46569C0.651666 4.99616 1.28075 3.69632 2.29696 2.59177C3.97129 0.776472 6.06178 -0.0943582 8.53295 0.00809242C10.3428 0.0817288 11.9429 0.738054 13.3075 1.92584C14.5786 3.03039 15.4077 4.40387 15.7916 6.03667C16.1013 7.35252 16.0658 8.66197 15.6851 9.95861C15.2012 11.601 14.2754 12.9553 12.8978 13.9862C10.9848 15.4205 8.83943 15.8655 6.50053 15.4141C5.79724 15.2796 5.12622 15.0299 4.49391 14.6906C4.39068 14.6361 4.30357 14.6233 4.19066 14.6617C2.99056 15.0459 1.78724 15.4269 0.587144 15.8079C0.406485 15.8655 0.222599 15.9264 0 16ZM2.0421 13.9926C2.10662 13.9766 2.13566 13.9702 2.16469 13.9606C2.91637 13.7237 3.66804 13.4836 4.42294 13.253C4.49391 13.2306 4.59069 13.2498 4.65844 13.2819C4.98427 13.4419 5.2972 13.634 5.63271 13.7749C7.01347 14.3544 8.43617 14.4472 9.87499 14.0502C11.5913 13.5732 12.9075 12.5583 13.8076 11.0247C14.5786 9.71209 14.8431 8.29379 14.6044 6.80185C14.3012 4.90331 13.3204 3.41138 11.6977 2.35165C10.2912 1.436 8.74264 1.12545 7.0909 1.38477C5.6682 1.60888 4.45197 2.2524 3.44867 3.28331C2.58731 4.16695 2.00984 5.21066 1.75821 6.41126C1.40011 8.13051 1.66465 9.75691 2.62602 11.2392C2.81958 11.537 2.81313 11.7643 2.69699 12.0685C2.46149 12.6928 2.2647 13.3299 2.0421 13.9926Z" fill="#65BC54"/>
<path d="M12.2091 10.0399C12.1994 10.6579 11.9058 11.1285 11.3122 11.423C10.7283 11.7112 10.1347 11.7848 9.52498 11.5479C8.97655 11.3334 8.42166 11.1253 7.89259 10.866C7.19576 10.5234 6.62474 10.0111 6.10212 9.44445C5.52465 8.81694 5.03429 8.119 4.63103 7.37303C4.34391 6.84477 4.1697 6.28449 4.231 5.66978C4.29552 5.01666 4.602 4.4948 5.11817 4.10101C5.2214 4.02417 5.37625 3.98895 5.50852 3.97615C5.6795 3.96334 5.85049 3.98895 6.02147 4.00176C6.16341 4.01457 6.24084 4.11381 6.28923 4.22907C6.41505 4.53642 6.52796 4.84378 6.64732 5.15433C6.72798 5.36243 6.78927 5.58014 6.88605 5.78184C7.00542 6.03156 6.93122 6.23967 6.77637 6.43176C6.6441 6.59504 6.50538 6.75192 6.35375 6.89279C6.22794 7.01125 6.20535 7.13291 6.28923 7.27698C6.66023 7.9333 7.11188 8.5224 7.7087 8.99943C8.10228 9.31319 8.5378 9.5469 8.98945 9.76461C9.12172 9.82864 9.25076 9.81904 9.354 9.70058C9.57659 9.44765 9.80242 9.19793 10.0218 8.9418C10.1637 8.77852 10.2347 8.74651 10.4251 8.84255C10.9767 9.11789 11.5219 9.40283 12.0703 9.68777C12.1994 9.75821 12.2316 9.87346 12.2091 10.0399Z" fill="#65BC54"/>
</svg>
